<svg xmlns="http://www.w3.org/2000/svg" width="192" height="192" viewBox="0 0 192 192">
  <rect width="192" height="192" rx="40" fill="#1e1b4b"/>
  <g transform="translate(96,96)">
    <!-- Brain outline -->
    <path d="M-8,-40 C-28,-40 -44,-28 -44,-8 C-44,0 -40,8 -34,14 C-38,20 -40,28 -36,36 C-32,44 -22,48 -12,46 C-8,50 -2,52 4,50 C10,54 18,54 24,50 C30,52 38,48 40,40 C44,34 42,26 38,20 C44,14 46,4 42,-4 C38,-14 28,-22 18,-24 C14,-36 2,-42 -8,-40Z" fill="none" stroke="#a78bfa" stroke-width="3.5" stroke-linejoin="round"/>
    <!-- Brain center line -->
    <path d="M-2,-38 C-2,-20 -4,-10 -2,0 C0,12 -2,28 -2,46" fill="none" stroke="#a78bfa" stroke-width="2.5" stroke-linecap="round"/>
    <!-- Left folds -->
    <path d="M-2,-24 C-14,-22 -26,-16 -32,-6" fill="none" stroke="#a78bfa" stroke-width="2" stroke-linecap="round"/>
    <path d="M-2,-8 C-12,-10 -24,-6 -34,4" fill="none" stroke="#a78bfa" stroke-width="2" stroke-linecap="round"/>
    <path d="M-2,10 C-10,12 -22,18 -28,28" fill="none" stroke="#a78bfa" stroke-width="2" stroke-linecap="round"/>
    <!-- Right folds -->
    <path d="M-2,-24 C10,-22 24,-18 32,-8" fill="none" stroke="#a78bfa" stroke-width="2" stroke-linecap="round"/>
    <path d="M-2,-8 C8,-6 22,-2 34,6" fill="none" stroke="#a78bfa" stroke-width="2" stroke-linecap="round"/>
    <path d="M-2,10 C8,14 20,22 26,32" fill="none" stroke="#a78bfa" stroke-width="2" stroke-linecap="round"/>
    <!-- Sparkle dots -->
    <circle cx="-36" cy="-30" r="3" fill="#818cf8" opacity="0.7"/>
    <circle cx="34" cy="-32" r="2.5" fill="#818cf8" opacity="0.6"/>
    <circle cx="40" cy="12" r="2" fill="#818cf8" opacity="0.5"/>
  </g>
</svg>
